<?xml version="1.0" standalone="no"?>
<!DOCTYPE svg PUBLIC "-//W3C//DTD SVG 20010904//EN"
 "http://www.w3.org/TR/2001/REC-SVG-20010904/DTD/svg10.dtd">
<svg version="1.0" xmlns="http://www.w3.org/2000/svg"
 width="644.000000pt" height="644.000000pt" viewBox="0 0 644.000000 644.000000"
 preserveAspectRatio="xMidYMid meet">
<metadata>
Created by potrace 1.11, written by Peter Selinger 2001-2013
</metadata>
<g transform="translate(0.000000,644.000000) scale(0.100000,-0.100000)"
fill="#000000" stroke="none">
<path d="M0 3220 l0 -3220 3220 0 3220 0 0 3220 0 3220 -685 0 -685 0 0 -35
c0 -51 22 -125 37 -125 7 0 13 -4 13 -10 0 -5 6 -10 13 -10 15 0 48 -36 39
-44 -12 -12 -1 -121 14 -132 8 -6 14 -15 14 -20 1 -5 19 -22 40 -39 34 -26 39
-35 40 -72 0 -28 13 -66 40 -118 22 -42 40 -85 40 -95 0 -10 4 -20 9 -22 13
-4 31 -185 31 -304 0 -63 4 -94 11 -94 8 0 9 -22 4 -77 -9 -86 -11 -111 -13
-195 -2 -43 -7 -63 -24 -82 -13 -13 -31 -34 -40 -45 -10 -11 -30 -23 -45 -27
-57 -13 -119 -49 -165 -97 -26 -27 -48 -53 -48 -58 0 -5 -9 -14 -20 -21 -19
-12 -20 -21 -16 -103 3 -60 2 -77 -3 -50 -5 23 -6 -14 -3 -90 4 -100 9 -133
20 -141 13 -9 14 -16 3 -41 -10 -24 -9 -35 0 -57 8 -18 9 -30 3 -34 -14 -10
-18 -402 -3 -402 8 0 9 -65 5 -227 -6 -272 -7 -289 -23 -286 -22 5 -32 -31
-23 -73 5 -21 10 -60 10 -86 0 -26 5 -48 12 -50 8 -3 12 -47 14 -139 2 -74 7
-190 13 -259 16 -225 23 -726 11 -870 -20 -238 -20 -241 -46 -267 -19 -19 -22
-28 -14 -49 13 -34 20 -172 23 -441 2 -171 -1 -223 -10 -223 -7 0 -10 -7 -7
-15 8 -19 -15 -20 -53 -1 -15 8 -43 20 -60 27 -19 6 -33 19 -33 28 0 12 -2 13
-8 3 -13 -20 -41 -3 -59 37 -19 42 -62 90 -80 91 -7 0 -13 4 -13 8 0 4 -20 18
-45 30 -25 12 -45 26 -45 32 0 5 -6 10 -13 10 -27 0 -85 38 -128 84 -141 152
-177 176 -265 176 -47 0 -55 3 -52 18 2 9 13 18 26 20 26 4 28 15 7 36 -8 8
-15 21 -15 28 1 16 29 55 32 42 0 -5 4 11 8 36 l7 45 1 -43 c3 -74 22 -36 22
44 0 67 -2 74 -20 74 -17 0 -20 7 -20 40 0 36 -2 40 -25 40 -24 0 -25 2 -27
83 l-2 82 -6 -85 -6 -85 -2 101 c-2 95 10 164 28 164 4 0 15 19 25 42 13 33
19 39 26 27 8 -10 9 -8 4 8 -7 27 12 66 27 57 6 -4 8 -3 5 2 -3 6 3 36 14 69
24 75 17 84 -10 11 -11 -30 -45 -103 -76 -162 l-56 -107 6 -385 c4 -254 10
-392 17 -406 12 -23 68 -78 68 -68 0 4 11 -12 24 -35 19 -32 24 -57 25 -110 0
-37 2 -81 3 -98 4 -61 -170 -288 -287 -375 -98 -72 -395 -161 -395 -117 0 9
-2 9 -8 0 -20 -31 -269 -44 -362 -18 -30 8 -107 26 -170 40 -157 33 -211 48
-332 96 -137 54 -276 129 -367 198 -41 31 -88 66 -105 77 -17 12 -87 80 -156
150 -128 131 -188 222 -175 263 5 17 77 81 90 81 7 0 78 54 117 89 15 13 30
22 34 19 3 -4 7 -33 8 -65 2 -32 4 -69 5 -83 l2 -25 11 25 c15 33 13 326 -2
490 -17 174 -18 210 -8 216 4 3 12 -5 17 -18 4 -13 12 -22 17 -20 5 2 12 -2
16 -10 4 -7 25 -42 46 -78 21 -37 41 -74 45 -83 3 -9 11 -17 17 -17 5 0 10 -6
10 -14 0 -8 12 -24 27 -35 19 -16 26 -30 25 -53 0 -21 2 -27 7 -19 6 9 11 10
15 2 4 -6 4 -15 1 -21 -3 -5 -3 -15 1 -22 5 -8 11 -6 20 6 14 20 34 14 34 -10
0 -8 5 -14 10 -14 6 0 10 -7 10 -15 0 -8 -5 -15 -11 -15 -21 0 -4 -45 18 -48
12 -2 25 -12 28 -22 3 -10 13 -21 22 -24 29 -11 27 4 -4 32 -16 15 -32 35 -36
44 -5 15 -1 16 26 11 40 -7 39 -7 43 -40 1 -15 8 -29 14 -31 5 -2 17 -10 25
-19 8 -8 19 -12 25 -8 6 3 7 -1 4 -10 -4 -8 -1 -22 6 -30 11 -13 16 -13 41 1
26 13 30 13 35 -1 8 -19 24 -20 24 -1 0 7 -9 16 -20 19 -11 3 -20 12 -20 21 0
15 2 15 25 0 16 -10 34 -14 50 -10 24 6 35 -7 15 -19 -16 -10 -12 -45 6 -45 8
0 12 5 9 10 -12 20 7 32 21 13 13 -17 14 -16 12 12 -3 35 16 40 46 13 10 -10
23 -15 28 -12 5 3 1 12 -9 20 -16 12 -16 13 -1 14 9 0 29 -5 43 -10 23 -9 26
-8 21 5 -7 18 -2 19 27 3 12 -6 49 -12 82 -13 33 -1 69 -6 79 -10 14 -6 17 -5
12 3 -4 7 -2 12 3 12 6 0 11 -4 11 -10 0 -5 7 -10 15 -10 9 0 29 -7 45 -15 18
-9 30 -11 32 -4 2 7 12 7 31 0 16 -6 53 -11 83 -11 50 0 55 -2 64 -26 8 -19
16 -25 30 -21 21 5 29 -16 10 -28 -13 -8 -13 -25 0 -25 6 0 10 7 10 15 0 8 9
15 21 15 15 0 20 5 17 23 -2 16 3 23 20 25 24 4 30 18 10 25 -10 3 -10 7 1 20
9 12 10 17 2 17 -7 0 -9 5 -6 10 3 6 15 10 26 10 11 0 19 6 18 13 -4 20 12 65
27 78 8 6 14 23 14 37 0 14 3 23 6 20 11 -12 56 41 51 61 -3 14 -1 18 10 14
11 -4 13 1 7 23 -4 16 -3 26 1 22 12 -11 35 11 35 34 0 11 4 16 11 12 8 -4 9
1 4 17 -3 13 -9 31 -11 41 -3 9 0 19 5 23 12 7 -23 45 -40 45 -7 0 -18 -8 -25
-18 -7 -9 -14 -12 -14 -5 0 6 5 15 10 18 14 9 12 25 -3 25 -8 0 -19 -10 -25
-22 -7 -15 -11 -17 -11 -8 -1 13 -3 13 -10 1 -5 -8 -24 -15 -43 -17 -70 -5
-134 -14 -166 -23 -18 -6 -40 -7 -48 -4 -8 3 -21 0 -29 -7 -11 -10 -18 -9 -31
5 -9 9 -23 14 -31 11 -8 -3 -23 -1 -33 4 -11 6 -21 6 -24 1 -4 -5 0 -12 6 -14
7 -3 -1 -6 -18 -6 -16 -1 -35 4 -42 11 -9 9 -12 9 -12 -2 0 -13 -2 -13 -11 0
-8 11 -12 12 -16 3 -7 -19 -24 -16 -17 2 4 11 2 13 -9 9 -8 -3 -18 -1 -21 5
-8 12 -66 -6 -66 -20 0 -5 -4 -9 -10 -9 -5 0 -10 6 -10 14 0 9 -7 12 -19 9
-21 -5 -60 39 -40 46 6 2 15 -3 20 -10 8 -14 9 -12 9 19 0 4 -19 7 -43 7 -33
0 -44 4 -51 21 -5 12 -25 30 -44 40 -41 22 -74 66 -66 88 5 14 0 14 -40 -4
-36 -15 -46 -16 -46 -6 0 8 14 19 30 25 17 5 30 13 30 17 0 4 -3 4 -7 1 -3 -4
-15 1 -26 10 -15 13 -21 15 -24 6 -6 -18 -23 -16 -23 2 0 8 -4 15 -10 15 -5 0
-10 -5 -10 -12 0 -6 -7 -20 -17 -30 -15 -17 -15 -18 0 -18 10 0 17 5 17 10 0
6 5 10 10 10 21 0 9 -20 -16 -26 -17 -4 -23 -11 -20 -21 4 -9 1 -13 -6 -11 -7
3 -16 19 -20 36 -10 36 -33 42 -55 15 -8 -10 -12 -12 -8 -5 7 13 -51 72 -71
72 -6 0 -16 18 -22 40 -8 32 -7 40 4 40 16 0 18 38 3 60 -7 11 -8 6 -4 -18 6
-29 5 -33 -12 -30 -11 2 -18 12 -18 25 0 12 -3 25 -7 29 -5 4 -8 -1 -8 -12 0
-10 -7 -27 -15 -37 -7 -11 -11 -25 -8 -33 3 -8 1 -14 -3 -14 -15 0 -53 51 -65
87 -6 19 -13 32 -16 29 -10 -10 -33 23 -27 38 4 9 1 16 -6 16 -8 0 -10 9 -6
25 5 20 2 27 -16 34 -13 5 -26 7 -29 5 -10 -6 -5 30 5 37 5 4 5 12 1 19 -11
18 -13 78 -4 117 4 19 5 32 2 29 -7 -6 -37 31 -46 57 -7 18 8 24 18 7 9 -15
25 -12 25 5 0 8 -7 15 -15 15 -9 0 -15 9 -15 23 0 13 -5 28 -12 35 -6 6 -12
26 -13 44 -2 50 -15 99 -37 141 -10 21 -16 42 -12 48 5 9 -13 74 -49 172 -5
16 -11 43 -12 60 -5 73 -37 148 -87 206 -9 11 -9 16 0 19 21 7 13 20 -18 27
-18 4 -30 13 -30 22 0 12 3 13 13 4 8 -6 16 -8 20 -5 8 8 -3 34 -15 34 -19 0
-35 26 -41 65 -3 22 -3 32 -1 22 3 -9 10 -14 15 -11 6 4 4 13 -5 23 -17 19
-20 37 -17 96 3 39 3 39 11 12 5 -16 6 -35 3 -43 -3 -8 0 -14 7 -14 7 0 11 14
9 40 -2 29 2 43 15 53 21 16 26 98 6 122 -7 8 -10 24 -7 35 5 20 -15 45 -26
33 -4 -3 -7 4 -7 17 0 13 3 20 7 17 3 -4 12 -2 19 4 11 9 10 15 -3 35 -12 19
-13 24 -2 24 10 1 8 5 -5 15 -16 12 -17 22 -12 75 5 48 4 61 -6 58 -7 -3 -13
-18 -13 -34 0 -19 -6 -30 -17 -32 -15 -3 -18 4 -18 32 0 19 5 38 11 42 6 3 9
17 6 30 -4 24 12 107 31 154 15 38 33 196 26 224 -3 14 -8 55 -10 93 -11 181
-6 343 12 379 8 14 14 33 14 40 0 8 16 48 36 89 27 55 42 77 60 81 14 4 24 14
24 24 0 10 15 29 33 42 48 37 416 219 435 216 10 -1 22 1 29 5 7 4 25 2 40 -6
16 -7 52 -12 83 -10 41 2 58 -2 67 -14 7 -9 29 -17 50 -18 21 -1 50 -6 66 -10
15 -4 58 -8 95 -9 37 0 73 -5 80 -9 7 -5 34 -12 60 -16 26 -3 47 -11 47 -18 0
-23 17 -28 31 -9 8 11 14 15 14 10 0 -15 123 -15 133 0 5 8 9 7 16 -3 6 -9 18
-11 35 -7 19 5 26 3 26 -9 0 -11 8 -13 30 -10 17 3 43 7 60 10 67 10 344 -34
450 -73 85 -30 136 -76 214 -192 98 -146 121 -223 207 -690 5 -25 13 -163 19
-307 5 -158 17 -318 30 -403 25 -176 25 -242 -1 -405 -27 -169 -37 -249 -33
-254 2 -2 15 4 29 13 22 14 25 24 25 71 0 49 2 55 24 61 13 3 27 15 30 27 9
33 6 155 -5 217 -19 107 -21 128 -11 146 8 15 13 11 31 -27 l21 -44 -6 125
c-4 81 -11 130 -20 140 -7 9 -14 31 -15 50 -3 51 12 163 23 177 10 12 11 20
23 134 l7 65 30 -4 31 -5 -21 29 c-21 28 -24 62 -20 179 1 17 -1 44 -5 60 -6
24 -5 26 3 10 8 -16 9 -15 4 10 -4 17 -6 36 -5 43 3 23 1 47 -9 152 -6 58 -11
117 -12 132 -1 17 -8 30 -19 33 -19 6 -32 32 -23 46 9 15 22 10 29 -11 9 -29
23 -25 17 5 -3 16 -13 27 -27 31 -19 5 -23 14 -28 59 -5 53 -30 101 -54 107
-10 2 -9 10 2 32 14 26 14 30 -2 42 -17 12 -17 13 -1 14 42 0 26 36 -35 73
-15 10 -27 24 -27 32 0 8 -7 15 -16 15 -21 0 -64 41 -64 61 0 13 -10 15 -60
11 -52 -4 -60 -2 -60 13 0 14 6 16 29 12 19 -4 31 -2 34 6 3 9 8 9 21 -2 14
-12 19 -11 36 4 20 18 20 18 -10 33 -17 8 -30 22 -30 33 0 11 -4 19 -8 19 -5
0 -14 11 -21 24 -14 26 -57 50 -72 41 -5 -4 -9 -1 -9 4 0 6 8 11 18 11 9 1 0
7 -21 14 -34 13 -87 60 -87 79 0 4 -6 7 -14 7 -8 0 -24 14 -36 30 -12 17 -29
30 -37 30 -9 0 -25 8 -35 17 -11 9 -35 17 -53 17 -19 0 -35 4 -35 8 0 4 -3 7
-7 7 -5 -1 -16 -1 -27 0 -15 1 -16 4 -7 15 18 21 -24 46 -76 46 -24 0 -43 4
-43 8 0 4 -11 9 -25 10 -37 3 -95 29 -95 43 0 7 -10 9 -28 6 -36 -7 -68 10
-34 19 43 12 21 21 -30 12 -36 -7 -59 -6 -77 2 -24 11 -63 12 -383 6 -31 0
-51 -4 -45 -8 8 -5 4 -8 -10 -8 -12 0 -25 5 -28 10 -9 15 -46 12 -79 -5 -17
-9 -41 -13 -55 -11 -14 3 -51 -3 -81 -13 -45 -15 -56 -16 -58 -5 -2 8 -13 13
-25 13 -31 -2 -85 -16 -67 -18 22 -2 -30 -30 -57 -31 -12 0 -24 6 -26 13 -3 6
-6 2 -6 -10 -1 -13 -6 -23 -13 -23 -6 0 -19 -6 -27 -14 -19 -16 -87 -37 -95
-28 -3 3 1 14 11 24 15 17 15 19 0 36 -10 10 -14 22 -10 25 3 4 -2 7 -12 7
-14 0 -16 -6 -12 -29 5 -25 3 -28 -13 -24 -17 5 -20 14 -20 64 0 33 -4 59 -10
59 -6 0 -10 35 -10 86 0 84 0 86 -22 81 -31 -8 -88 43 -88 78 0 23 -4 25 -40
25 -22 0 -40 5 -40 10 0 6 18 10 40 10 29 0 40 4 40 15 0 8 -4 15 -10 15 -6 0
-10 33 -10 80 l0 80 -525 0 -525 0 0 -40 c0 -29 4 -40 15 -40 12 0 15 -16 15
-80 l0 -80 -55 0 -55 0 0 -40 c0 -36 -2 -40 -25 -40 -16 0 -25 6 -25 15 0 14
-3 13 -25 -2 -22 -16 -24 -25 -25 -95 0 -63 -3 -78 -15 -78 -11 0 -15 -11 -15
-40 l0 -40 -120 0 -120 0 0 -25 c0 -22 -4 -25 -40 -25 -29 0 -40 -4 -40 -15 0
-11 11 -15 40 -15 33 0 40 -3 40 -20 0 -17 7 -20 53 -21 28 0 46 -3 40 -6 -7
-2 -13 -11 -13 -19 0 -8 -7 -14 -15 -14 -11 0 -15 -11 -15 -40 0 -29 -4 -40
-15 -40 -11 0 -15 -11 -15 -40 0 -22 -4 -40 -10 -40 -5 0 -10 -18 -10 -40 0
-36 -2 -40 -25 -40 -25 0 -25 -1 -25 -80 0 -64 -3 -80 -15 -80 -11 0 -15 11
-15 40 0 22 -4 40 -10 40 -5 0 -10 -18 -10 -40 0 -22 5 -40 10 -40 6 0 10 -47
10 -120 l0 -120 -40 0 -40 0 0 -40 c0 -22 5 -40 10 -40 6 0 10 -18 10 -40 0
-22 -4 -40 -10 -40 -5 0 -10 18 -10 40 l0 40 -40 0 c-29 0 -40 -4 -40 -15 0
-11 -11 -15 -40 -15 -36 0 -40 -2 -40 -25 0 -22 4 -25 40 -25 l40 0 0 -55 0
-55 -42 -2 -43 -1 45 -7 45 -7 -42 -1 c-31 -2 -43 -6 -43 -17 0 -11 -11 -15
-40 -15 l-40 0 0 40 0 40 -40 0 -40 0 0 40 c0 36 -2 40 -25 40 l-25 0 0 120
c0 100 -2 120 -15 120 -11 0 -15 -11 -15 -40 0 -22 -4 -40 -10 -40 -6 0 -10
47 -10 120 0 73 4 120 10 120 6 0 10 18 10 40 0 29 4 40 15 40 11 0 15 11 15
40 0 29 4 40 15 40 11 0 15 11 15 40 0 22 5 40 10 40 6 0 10 -18 10 -40 l0
-40 40 0 40 0 0 40 c0 22 5 40 10 40 6 0 10 18 10 40 0 22 -4 40 -10 40 -5 0
-10 15 -10 34 0 34 -1 35 -42 39 l-43 4 43 1 c30 1 42 6 42 17 0 11 11 15 40
15 36 0 40 3 40 25 0 23 4 25 40 25 l40 0 0 40 c0 38 2 40 30 40 l30 0 0 120
0 120 25 0 c23 0 25 4 25 40 0 29 -4 40 -15 40 -11 0 -15 11 -15 40 0 38 2 40
30 40 28 0 30 2 30 40 0 36 3 40 25 40 23 0 25 4 25 40 l0 40 -295 0 -295 0 0
-3220z m1280 3155 c0 -12 16 -15 80 -15 l80 0 0 -40 0 -40 40 0 c29 0 40 -4
40 -15 0 -11 11 -15 40 -15 29 0 40 -4 40 -15 0 -11 -11 -15 -40 -15 -22 0
-40 -4 -40 -10 0 -5 5 -10 10 -10 6 0 10 -73 10 -200 0 -127 -4 -200 -10 -200
-6 0 -10 33 -10 80 0 64 -3 80 -15 80 -12 0 -15 -16 -15 -80 0 -79 0 -80 -25
-80 -25 0 -25 0 -25 -95 l0 -95 40 0 c38 0 40 2 40 30 0 28 2 30 40 30 29 0
40 -4 40 -15 0 -12 14 -15 65 -15 l65 0 0 -40 c0 -29 -4 -40 -15 -40 -21 0
-20 -68 1 -98 14 -21 14 -23 -8 -31 -26 -10 -39 -4 -19 9 19 11 6 40 -19 40
-16 0 -20 -6 -20 -34 0 -18 -5 -48 -11 -65 -7 -21 -8 -36 -2 -42 11 -11 43 -2
43 12 0 13 41 52 47 45 9 -8 -38 -67 -61 -75 -31 -12 -42 -4 -56 40 -19 56
-40 51 -40 -10 0 -41 -4 -53 -25 -69 -27 -22 -32 -38 -12 -45 6 -3 -4 -3 -24
0 -21 3 -39 1 -43 -6 -14 -22 -26 -10 -26 24 0 34 -1 35 -40 35 -29 0 -40 4
-40 15 0 12 -14 15 -65 15 l-65 0 0 80 c0 79 0 80 -25 80 -25 0 -25 1 -25 80
l0 80 -30 0 c-28 0 -30 2 -30 40 0 29 4 40 15 40 11 0 15 11 15 40 0 29 -4 40
-15 40 -11 0 -15 11 -15 40 0 29 4 40 15 40 11 0 15 11 15 40 0 29 -4 40 -15
40 -12 0 -15 20 -15 120 0 100 3 120 15 120 11 0 15 11 15 40 l0 40 65 0 65 0
0 40 0 40 -40 0 c-29 0 -40 4 -40 15 0 11 11 15 40 15 29 0 40 -4 40 -15z
m800 -55 c0 -22 -4 -40 -10 -40 -5 0 -10 18 -10 40 0 22 5 40 10 40 6 0 10
-18 10 -40z m160 -240 c0 -22 -25 -27 -50 -10 -13 9 -13 11 0 20 25 17 50 12
50 -10z m20 -209 c0 -6 -4 -13 -10 -16 -5 -3 -10 1 -10 9 0 9 5 16 10 16 6 0
10 -4 10 -9z m35 -79 c-8 -9 -55 -11 -55 -2 0 5 3 9 8 9 21 -4 32 3 33 19 0
14 2 14 8 -3 5 -11 7 -21 6 -23z m-1545 4 c0 -2 -7 -9 -15 -16 -12 -10 -15
-10 -15 4 0 9 7 16 15 16 8 0 15 -2 15 -4z m2350 -46 c0 -5 -19 -9 -42 -9
l-43 2 35 7 c19 4 38 8 43 9 4 0 7 -3 7 -9z m-1500 -30 c0 -28 -2 -30 -40 -30
-38 0 -40 2 -40 30 0 28 2 30 40 30 38 0 40 -2 40 -30z m-850 -40 c0 -5 -7
-10 -15 -10 -8 0 -15 5 -15 10 0 6 7 10 15 10 8 0 15 -4 15 -10z m-510 -80 c0
-29 -4 -40 -15 -40 -11 0 -15 11 -15 40 0 29 4 40 15 40 11 0 15 -11 15 -40z
m2923 -17 c-7 -2 -19 -2 -25 0 -7 3 -2 5 12 5 14 0 19 -2 13 -5z m872 -23 c-3
-5 -15 -10 -26 -10 -11 0 -17 5 -14 10 3 6 15 10 26 10 11 0 17 -4 14 -10z
m-2261 -101 c-8 -14 -24 -10 -24 6 0 9 6 12 15 9 8 -4 12 -10 9 -15z m2181 -9
c3 -5 1 -10 -4 -10 -6 0 -11 5 -11 10 0 6 2 10 4 10 3 0 8 -4 11 -10z m115 0
c13 -8 13 -10 -2 -10 -9 0 -20 5 -23 10 -8 13 5 13 25 0z m95 -7 c17 -2 35 -9
40 -15 7 -7 0 -9 -21 -5 -17 3 -36 1 -41 -4 -7 -7 -16 -5 -27 6 -21 22 -21 39
2 30 9 -4 31 -9 47 -12z m-2885 -163 c0 -17 -7 -20 -40 -20 -33 0 -40 3 -40
20 0 17 7 20 40 20 33 0 40 -3 40 -20z m333 -25 c-3 -9 -8 -14 -10 -11 -3 3
-2 9 2 15 9 16 15 13 8 -4z m-23 -35 c0 -5 -4 -10 -10 -10 -5 0 -10 5 -10 10
0 6 5 10 10 10 6 0 10 -4 10 -10z m-40 -20 c0 -5 -4 -10 -10 -10 -5 0 -10 5
-10 10 0 6 5 10 10 10 6 0 10 -4 10 -10z m-110 -55 c0 -12 -16 -15 -80 -15
-64 0 -80 3 -80 15 0 12 16 15 80 15 64 0 80 -3 80 -15z m60 -55 c0 -5 -4 -10
-10 -10 -5 0 -10 5 -10 10 0 6 5 10 10 10 6 0 10 -4 10 -10z m-47 -35 c-3 -9
-8 -14 -10 -11 -3 3 -2 9 2 15 9 16 15 13 8 -4z m4255 -237 c35 -20 123 -84
160 -117 12 -12 28 -21 35 -21 7 0 22 -7 34 -15 12 -9 51 -26 86 -40 75 -28
164 -78 192 -109 11 -12 32 -44 47 -71 36 -67 42 -199 13 -260 -10 -22 -23
-43 -28 -46 -5 -4 -6 -12 -2 -19 5 -8 4 -11 -3 -6 -6 3 -19 -7 -28 -24 -10
-16 -26 -30 -36 -30 -10 0 -18 -4 -18 -10 0 -18 -58 -40 -137 -52 -151 -22
-440 16 -468 62 -3 6 -17 10 -29 10 -13 0 -31 11 -42 25 -10 14 -25 25 -33 25
-11 0 -11 3 -1 15 10 12 10 15 -4 15 -12 0 -16 11 -18 53 -1 28 -1 61 -1 72 1
11 4 110 7 220 3 110 8 214 11 230 10 51 46 87 106 105 61 20 107 16 157 -12z
m-5258 -65 c0 -10 -32 -43 -42 -43 -4 0 -8 11 -8 25 0 20 5 25 25 25 14 0 25
-3 25 -7z m-105 -83 c-3 -5 -10 -10 -16 -10 -5 0 -9 5 -9 10 0 6 7 10 16 10 8
0 12 -4 9 -10z m858 -329 c-3 -13 -11 -17 -24 -14 -25 7 -24 12 4 23 12 5 23
9 24 9 0 1 -1 -7 -4 -18z m80 -99 c-5 -22 -23 -31 -23 -12 0 10 23 40 27 36 1
-1 0 -12 -4 -24z m648 -429 c-9 -16 -10 -14 -11 12 0 21 3 26 11 18 8 -8 8
-16 0 -30z m-473 -63 c-12 -33 -19 -62 -16 -66 4 -3 32 -1 62 6 l56 11 50 -43
c27 -24 49 -49 50 -57 0 -7 11 -26 25 -43 14 -16 25 -34 25 -38 0 -5 -14 -25
-30 -44 -19 -21 -28 -40 -24 -50 7 -19 12 -19 44 -1 14 8 28 14 32 15 16 1 38
-34 38 -61 0 -16 18 -73 40 -128 56 -140 147 -538 127 -558 -3 -2 -24 5 -46
17 -23 11 -72 24 -109 29 -37 5 -83 18 -102 29 -66 41 -129 112 -166 191 -20
42 -45 94 -55 115 -11 22 -19 50 -19 62 0 13 -4 25 -8 28 -5 3 -15 30 -22 60
-7 31 -17 53 -22 50 -4 -3 -5 -17 -2 -32 11 -43 10 -107 -1 -107 -5 0 -10 10
-10 22 -1 26 -15 45 -15 20 0 -13 -10 -17 -42 -19 l-43 -1 43 -4 c53 -5 55
-23 2 -23 -22 0 -40 -4 -40 -10 0 -5 9 -10 20 -10 11 0 20 -4 20 -10 0 -5 -10
-10 -22 -10 -19 0 -20 -2 -8 -10 10 -6 11 -10 3 -10 -8 0 -13 -14 -13 -35 l0
-35 -80 0 -80 0 0 80 0 80 -50 0 -50 0 0 40 0 40 50 0 50 0 0 80 c0 64 3 80
15 80 11 0 15 11 15 40 0 36 3 40 25 40 23 0 25 4 25 40 0 39 1 40 34 40 l33
0 7 -81 c5 -55 11 -79 19 -76 7 2 11 19 9 39 -2 29 1 37 18 41 17 4 20 0 20
-32 0 -20 5 -42 12 -49 6 -6 11 -25 10 -43 -1 -34 23 -70 31 -46 3 11 -18 124
-30 157 -24 65 37 302 85 329 30 18 32 12 10 -49z m485 15 c4 -8 0 -26 -7 -40
-12 -22 -15 -23 -20 -9 -4 10 -2 20 4 24 6 4 8 14 4 23 -3 9 -2 17 4 17 5 0
12 -7 15 -15z m-620 -139 c24 -19 21 -40 -7 -56 -19 -10 -26 -23 -29 -54 -3
-37 -4 -36 -5 12 -1 29 2 52 8 52 6 0 10 9 10 20 0 11 -4 20 -10 20 -5 0 -10
5 -10 10 0 14 22 12 43 -4z m14 -108 c-3 -7 -5 -2 -5 12 0 14 2 19 5 13 2 -7
2 -19 0 -25z m-537 -78 c0 -5 18 -10 40 -10 l40 0 0 -40 0 -40 -40 0 -40 0 0
-95 0 -95 40 0 c29 0 40 -4 40 -15 0 -11 -11 -15 -39 -15 -42 0 -43 1 -56 69
-5 24 -10 30 -16 20 -5 -8 -9 -24 -9 -36 0 -13 -4 -23 -10 -23 -17 0 -30 75
-30 183 l0 107 40 0 c22 0 40 -4 40 -10z m-240 -210 c0 -5 -4 -10 -9 -10 -6 0
-13 5 -16 10 -3 6 1 10 9 10 9 0 16 -4 16 -10z m400 -5 c0 -11 -11 -15 -40
-15 -29 0 -40 4 -40 15 0 11 11 15 40 15 29 0 40 -4 40 -15z m425 -129 c35
-12 37 -14 15 -18 -26 -3 -70 12 -70 25 0 10 9 9 55 -7z m82 -118 c-3 -8 -6
-5 -6 6 -1 11 2 17 5 13 3 -3 4 -12 1 -19z m-407 -98 c0 -22 5 -40 10 -40 6 0
10 -7 10 -15 0 -8 -9 -15 -20 -15 -18 0 -20 7 -20 55 0 30 5 55 10 55 6 0 10
-18 10 -40z m459 -22 c5 -13 7 -27 6 -33 -1 -5 0 -7 2 -2 9 15 29 6 70 -32 48
-45 144 -94 167 -85 37 14 102 -37 109 -85 2 -11 11 -29 21 -40 10 -11 15 -24
12 -29 -3 -5 1 -15 9 -22 8 -7 15 -22 15 -34 0 -11 12 -32 25 -45 31 -29 32
-64 3 -85 -15 -10 -17 -14 -5 -10 13 5 17 1 17 -19 0 -14 -6 -27 -12 -30 -10
-3 -8 -12 5 -36 10 -17 15 -36 12 -41 -3 -6 5 -10 19 -10 30 0 43 -17 19 -23
-13 -3 -10 -5 7 -6 14 -1 30 -5 35 -9 21 -15 37 -61 33 -91 -3 -17 -1 -31 4
-31 4 0 8 -21 8 -46 0 -27 -4 -43 -10 -39 -5 3 -10 1 -10 -4 0 -6 -11 -11 -25
-11 -22 0 -25 -4 -25 -40 0 -29 -4 -40 -15 -40 -11 0 -15 -11 -15 -40 0 -36
-2 -40 -25 -40 -22 0 -25 -4 -25 -40 0 -36 3 -40 25 -40 16 0 25 -6 25 -15 0
-11 -11 -15 -40 -15 -22 0 -40 -4 -40 -10 0 -6 -47 -10 -120 -10 l-120 0 0
-56 0 -57 -60 6 c-33 4 -87 4 -120 0 l-60 -6 0 -78 c0 -46 -4 -79 -10 -79 -5
0 -10 18 -10 40 l0 40 -40 0 -40 0 0 40 c0 29 -4 40 -15 40 -11 0 -15 11 -15
40 0 29 -4 40 -15 40 -11 0 -15 11 -15 40 0 29 4 40 15 40 12 0 15 16 15 80 0
64 -3 80 -15 80 -11 0 -15 -11 -15 -40 l0 -40 -50 0 -50 0 0 40 c0 38 -2 40
-30 40 -28 0 -30 2 -30 40 0 22 -4 40 -10 40 -6 0 -10 33 -10 80 0 47 4 80 10
80 6 0 10 18 10 40 l0 40 -40 0 -40 0 0 -80 c0 -47 -4 -80 -10 -80 -6 0 -10
33 -10 80 0 47 4 80 10 80 6 0 10 18 10 40 l0 40 40 0 40 0 0 40 0 40 40 0
c36 0 40 3 40 25 0 23 4 25 40 25 29 0 40 4 40 15 0 8 -4 15 -10 15 -6 0 -10
33 -10 80 0 47 4 80 10 80 6 0 10 -33 10 -80 0 -79 0 -80 25 -80 23 0 25 4 25
40 0 29 4 40 15 40 11 0 15 -11 15 -40 0 -22 5 -40 10 -40 6 0 10 47 10 120
l0 120 30 0 c28 0 30 3 30 35 0 20 5 35 12 35 6 0 4 6 -6 13 -14 10 -17 21
-11 45 6 29 27 43 38 25 2 -5 2 -2 0 6 -4 15 14 41 29 41 5 0 12 -10 17 -22z
m-322 -80 c-2 -13 -4 -3 -4 22 0 25 2 35 4 23 2 -13 2 -33 0 -45z m1033 -294
c0 -8 -5 -12 -10 -9 -6 4 -8 11 -5 16 9 14 15 11 15 -7z m-32 -27 c15 -41 15
-47 2 -47 -5 0 -10 11 -10 24 0 14 -4 28 -10 31 -12 7 -13 25 -2 25 4 0 13
-15 20 -33z m402 -512 c0 -8 -4 -15 -10 -15 -5 0 -10 7 -10 15 0 8 5 15 10 15
6 0 10 -7 10 -15z m-490 -14 c0 -5 -7 -14 -15 -21 -13 -10 -15 -9 -15 9 0 12
6 21 15 21 8 0 15 -4 15 -9z m695 -41 c-3 -5 -11 -10 -16 -10 -6 0 -7 5 -4 10
3 6 11 10 16 10 6 0 7 -4 4 -10z m-718 -52 c-3 -8 -6 -5 -6 6 -1 11 2 17 5 13
3 -3 4 -12 1 -19z m783 -14 c0 -8 -4 -12 -10 -9 -5 3 -10 10 -10 16 0 5 5 9
10 9 6 0 10 -7 10 -16z m25 7 c3 -5 1 -12 -5 -16 -5 -3 -10 1 -10 9 0 18 6 21
15 7z m-1615 -231 c0 -5 -18 -10 -40 -10 -22 0 -40 5 -40 10 0 6 18 10 40 10
22 0 40 -4 40 -10z m320 -50 c0 -5 18 -10 40 -10 33 0 40 -3 40 -20 0 -17 -7
-20 -40 -20 -39 0 -40 -1 -40 -35 0 -34 -1 -35 -40 -35 -36 0 -40 3 -40 25 0
20 5 25 25 25 23 0 25 4 25 40 0 29 4 40 15 40 8 0 15 -4 15 -10z m2572 -30
c2 -22 0 -40 -4 -40 -5 0 -8 18 -8 40 0 22 2 40 4 40 2 0 6 -18 8 -40z m-2412
-55 c0 -11 -11 -15 -40 -15 -29 0 -40 4 -40 15 0 11 11 15 40 15 29 0 40 -4
40 -15z m-880 -90 c0 -42 3 -55 15 -55 11 0 15 -11 15 -40 0 -36 3 -40 25 -40
25 0 25 -1 25 -80 0 -64 3 -80 15 -80 11 0 15 -11 15 -40 0 -29 -4 -40 -15
-40 -27 0 -16 -17 15 -23 17 -4 30 -11 30 -17 0 -6 -13 -13 -30 -16 -16 -4
-30 -10 -30 -15 0 -5 -31 -9 -70 -9 l-70 0 0 40 c0 22 -4 40 -10 40 -5 0 -10
11 -10 25 0 23 -4 25 -40 25 -36 0 -40 -2 -40 -25 0 -23 -3 -25 -50 -25 l-50
0 0 -40 c0 -22 5 -40 10 -40 6 0 10 -21 10 -47 0 -35 3 -44 10 -33 9 13 10 13
10 0 0 -13 1 -13 10 0 9 13 10 13 10 0 0 -13 1 -13 10 0 9 13 10 13 11 0 0 -9
4 -7 11 8 9 17 20 22 50 22 25 0 38 -5 38 -13 0 -8 6 -14 13 -14 6 -1 32 -2
57 -4 27 -1 50 -9 57 -18 11 -14 12 -14 13 2 0 11 5 17 13 14 6 -2 11 -12 11
-21 -1 -9 3 -16 9 -16 6 0 7 -3 4 -7 -11 -10 -56 -12 -62 -2 -4 5 -30 6 -61 3
-38 -5 -54 -3 -54 5 0 11 -39 9 -60 -4 -6 -4 -16 -3 -23 2 -10 8 -28 9 -67 4
-5 0 -10 -18 -10 -38 1 -34 2 -36 14 -20 18 24 39 22 31 -3 -5 -17 -1 -21 27
-27 l33 -7 -30 -6 c-20 -4 -36 -1 -48 8 -20 18 -35 9 -19 -11 10 -11 -1 -16
-58 -26 -39 -7 -96 -14 -128 -16 -31 -1 -85 -6 -119 -10 -48 -6 -63 -5 -63 5
0 7 8 10 20 7 11 -3 20 -1 20 4 0 5 -12 9 -27 10 -16 0 -22 3 -15 6 18 7 16
83 -3 83 -11 0 -15 11 -15 40 0 22 -4 40 -10 40 -5 0 -10 18 -10 40 0 22 5 40
10 40 6 0 10 18 10 40 0 38 2 40 30 40 20 0 30 5 30 15 0 11 11 15 40 15 39 0
40 1 40 35 0 34 1 35 40 35 33 0 40 3 40 20 0 17 -7 20 -40 20 -22 0 -40 5
-40 10 0 6 11 10 25 10 23 0 25 4 25 40 0 29 4 40 15 40 11 0 15 -11 15 -40
l0 -40 40 0 40 0 0 120 0 120 40 0 40 0 0 -40 0 -40 40 0 40 0 0 40 0 40 40 0
c29 0 40 4 40 15 0 11 11 15 40 15 l40 0 0 -55z m3323 18 c-7 -2 -21 -2 -30 0
-10 3 -4 5 12 5 17 0 24 -2 18 -5z m-2359 -22 c4 -5 -3 -7 -14 -4 -23 6 -26
13 -6 13 8 0 17 -4 20 -9z m-404 -11 c0 -5 -18 -10 -40 -10 -22 0 -40 5 -40
10 0 6 18 10 40 10 22 0 40 -4 40 -10z m393 -37 c-7 -2 -19 -2 -25 0 -7 3 -2
5 12 5 14 0 19 -2 13 -5z m-523 -13 c0 -5 -7 -10 -15 -10 -8 0 -15 5 -15 10 0
6 7 10 15 10 8 0 15 -4 15 -10z m130 -30 c0 -22 -4 -40 -10 -40 -5 0 -10 18
-10 40 0 22 5 40 10 40 6 0 10 -18 10 -40z m1940 26 c0 -2 -7 -7 -16 -10 -8
-3 -12 -2 -9 4 6 10 25 14 25 6z m-1754 -103 c-11 -11 -19 6 -11 24 8 17 8 17
12 0 3 -10 2 -21 -1 -24z m57 30 c-7 -2 -19 -2 -25 0 -7 3 -2 5 12 5 14 0 19
-2 13 -5z m-163 -92 c0 -5 6 -11 14 -13 7 -2 -11 -17 -40 -35 -32 -18 -54 -26
-54 -19 0 7 16 19 36 26 26 11 34 19 31 32 -3 10 -1 18 4 18 5 0 9 -4 9 -9z
m-118 -113 c-7 -7 -12 -8 -12 -2 0 14 12 26 19 19 2 -3 -1 -11 -7 -17z m-343
-17 c8 -14 7 -22 -4 -31 -13 -11 -15 -8 -15 19 0 36 5 39 19 12z m1 -131 c0
-5 -4 -10 -10 -10 -5 0 -10 5 -10 10 0 6 5 10 10 10 6 0 10 -4 10 -10z m40
-25 c0 -8 -7 -15 -16 -15 -14 0 -14 3 -4 15 7 8 14 15 16 15 2 0 4 -7 4 -15z
m-53 -27 c-3 -8 -6 -5 -6 6 -1 11 2 17 5 13 3 -3 4 -12 1 -19z m4008 -27 c3
-5 1 -12 -5 -16 -5 -3 -10 1 -10 9 0 18 6 21 15 7z m-4161 -30 c3 -5 -1 -11
-9 -14 -9 -4 -12 -1 -8 9 6 16 10 17 17 5z m-164 -26 c14 -16 10 -18 -14 -9
-9 3 -16 10 -16 15 0 14 16 11 30 -6z m57 9 c-3 -3 -12 -4 -19 -1 -8 3 -5 6 6
6 11 1 17 -2 13 -5z m-7 -28 c0 -3 -4 -8 -10 -11 -5 -3 -10 -1 -10 4 0 6 5 11
10 11 6 0 10 -2 10 -4z m-540 -56 c0 -5 -4 -10 -10 -10 -5 0 -10 5 -10 10 0 6
5 10 10 10 6 0 10 -4 10 -10z"/>
<path d="M1280 5705 c0 -11 11 -15 40 -15 29 0 40 4 40 15 0 11 -11 15 -40 15
-29 0 -40 -4 -40 -15z"/>
<path d="M1280 5440 l0 -40 40 0 40 0 0 40 0 40 -40 0 -40 0 0 -40z"/>
<path d="M1362 3270 c0 -14 2 -19 5 -12 2 6 2 18 0 25 -3 6 -5 1 -5 -13z"/>
<path d="M1778 2683 c6 -2 18 -2 25 0 6 3 1 5 -13 5 -14 0 -19 -2 -12 -5z"/>
<path d="M1940 2425 c0 -8 -4 -15 -10 -15 -5 0 -10 -6 -10 -14 0 -8 6 -13 13
-12 24 3 35 16 30 36 -6 23 -23 27 -23 5z"/>
<path d="M1910 2291 c0 -6 4 -13 10 -16 6 -3 7 1 4 9 -7 18 -14 21 -14 7z"/>
<path d="M2000 2160 c0 -6 7 -10 15 -10 8 0 15 2 15 4 0 2 -7 6 -15 10 -8 3
-15 1 -15 -4z"/>
<path d="M2030 2126 c0 -2 11 -6 25 -8 14 -3 25 -1 25 3 0 5 -11 9 -25 9 -14
0 -25 -2 -25 -4z"/>
<path d="M1200 2080 c0 -29 4 -40 15 -40 11 0 15 11 15 40 0 29 -4 40 -15 40
-11 0 -15 -11 -15 -40z"/>
<path d="M1538 1633 c12 -2 32 -2 45 0 12 2 2 4 -23 4 -25 0 -35 -2 -22 -4z"/>
<path d="M2248 6193 c7 -3 16 -2 19 1 4 3 -2 6 -13 5 -11 0 -14 -3 -6 -6z"/>
<path d="M847 5992 c-23 -25 -21 -32 8 -32 20 0 25 5 25 25 0 30 -11 32 -33 7z"/>
<path d="M2328 5953 c7 -3 16 -2 19 1 4 3 -2 6 -13 5 -11 0 -14 -3 -6 -6z"/>
<path d="M2645 5930 c-3 -5 1 -10 9 -10 9 0 16 5 16 10 0 6 -4 10 -9 10 -6 0
-13 -4 -16 -10z"/>
<path d="M2698 5913 c7 -3 16 -2 19 1 4 3 -2 6 -13 5 -11 0 -14 -3 -6 -6z"/>
<path d="M2408 5833 c7 -3 16 -2 19 1 4 3 -2 6 -13 5 -11 0 -14 -3 -6 -6z"/>
<path d="M530 5636 c0 -2 7 -9 15 -16 12 -10 15 -10 15 4 0 9 -7 16 -15 16 -8
0 -15 -2 -15 -4z"/>
<path d="M4089 4310 c-6 -4 -19 -5 -29 -3 -10 3 -27 -4 -39 -14 -12 -10 -29
-19 -39 -20 -9 -2 -28 -5 -42 -8 -14 -2 -63 -10 -110 -17 -81 -12 -134 -35
-153 -66 -5 -7 -16 -10 -26 -7 -11 3 -22 -4 -34 -24 -9 -15 -34 -50 -56 -76
-30 -36 -39 -56 -39 -84 0 -53 18 -154 30 -168 15 -19 36 -16 34 4 -1 11 22
30 68 55 38 21 72 38 75 38 3 0 -18 -20 -46 -45 -52 -47 -73 -85 -46 -85 8 0
40 23 72 50 62 54 91 63 91 30 0 -30 29 -70 51 -70 10 0 21 -4 24 -10 9 -15
84 -12 99 3 19 19 46 73 46 92 0 10 4 13 13 8 14 -8 18 -9 64 -11 29 -2 33 -5
31 -28 -2 -15 -8 -28 -15 -31 -6 -3 -9 -11 -7 -18 5 -11 10 -11 32 1 14 7 37
11 50 7 22 -5 23 -3 17 17 -4 13 -28 43 -54 68 l-46 45 33 -6 c17 -4 32 -3 32
1 0 19 -94 45 -201 54 -95 9 -127 8 -183 -4 -70 -16 -106 -14 -105 6 1 17 86
76 159 109 72 33 150 39 302 23 62 -7 75 -12 71 -24 -5 -12 -1 -14 23 -8 40
10 50 22 34 41 -11 13 -10 14 4 9 18 -7 22 11 5 22 -8 4 -8 9 -1 13 6 4 -15
34 -49 70 -49 52 -67 64 -94 66 -19 1 -39 -1 -46 -5z m-244 -352 c-16 -6 -36
-15 -43 -21 -7 -5 -15 -7 -18 -4 -8 8 47 36 71 36 14 0 11 -4 -10 -11z m55
-54 c0 -8 -7 -14 -15 -14 -15 0 -21 21 -9 33 10 9 24 -2 24 -19z"/>
<path d="M4280 4220 c0 -5 10 -15 23 -21 22 -12 22 -12 3 10 -21 23 -26 26
-26 11z"/>
<path d="M2666 4189 c5 -9 -80 -21 -138 -19 -27 0 -48 -3 -48 -7 0 -4 -11 -13
-24 -19 -19 -9 -27 -8 -39 3 -12 12 -18 11 -43 -9 -39 -30 -62 -45 -101 -63
-18 -9 -33 -19 -33 -23 0 -4 -9 -8 -20 -9 -16 -1 -18 1 -8 11 7 7 22 18 33 25
17 10 14 11 -22 6 -26 -4 -43 -3 -43 3 0 5 -7 12 -15 16 -10 4 -22 -10 -40
-48 -14 -29 -25 -60 -25 -69 0 -10 -4 -17 -9 -17 -6 0 -9 -18 -8 -40 1 -38 18
-53 32 -30 10 16 25 11 25 -8 0 -26 20 -42 54 -43 27 0 28 -2 11 -9 -18 -8
-17 -9 8 -9 18 -1 27 4 27 14 0 9 9 15 24 15 28 0 43 16 24 23 -7 3 -4 6 7 7
11 0 33 12 49 27 29 25 29 26 10 40 -18 13 -17 14 9 7 23 -5 29 -3 33 12 4 17
73 42 154 58 8 1 22 5 30 9 8 3 26 6 40 6 14 0 58 2 99 4 74 3 84 1 247 -50
62 -20 80 -30 77 -42 -6 -22 62 -28 71 -6 3 9 12 12 23 8 16 -6 16 -4 -2 16
-14 16 -16 24 -7 30 9 5 7 13 -8 29 -12 12 -18 27 -15 33 12 19 -26 49 -62 49
-18 0 -33 3 -33 8 0 10 -73 32 -105 32 -14 0 -33 4 -43 10 -20 11 -202 29
-196 19z m-326 -103 c0 -3 -4 -8 -10 -11 -5 -3 -10 -1 -10 4 0 6 5 11 10 11 6
0 10 -2 10 -4z"/>
<path d="M2410 4176 c0 -2 7 -7 16 -10 8 -3 12 -2 9 4 -6 10 -25 14 -25 6z"/>
<path d="M1930 4020 c0 -5 5 -10 10 -10 6 0 10 5 10 10 0 6 -4 10 -10 10 -5 0
-10 -4 -10 -10z"/>
<path d="M2755 3930 c-77 -11 -196 -41 -308 -80 -49 -16 -99 -30 -111 -30 -13
0 -36 -10 -52 -22 -55 -43 -56 -45 -32 -67 25 -24 23 -23 98 -27 30 -1 71 -5
91 -9 42 -8 70 13 62 45 -3 11 0 20 6 20 6 0 11 7 11 15 0 23 13 18 35 -15 26
-38 59 -50 114 -42 55 9 84 43 84 101 0 50 13 52 94 15 63 -28 124 -38 116
-18 -2 7 -18 17 -34 23 -16 5 -29 14 -29 19 0 6 -7 13 -16 16 -8 3 -12 2 -9
-4 9 -15 -1 -12 -42 10 -48 25 -25 26 84 1 51 -12 85 -15 91 -9 10 10 33 16
65 17 25 1 21 14 -11 33 -19 11 -33 14 -42 7 -8 -5 -33 -7 -55 -4 -97 11 -154
12 -210 5z m-87 -87 c-5 -25 -28 -28 -28 -4 0 12 6 21 16 21 9 0 14 -7 12 -17z"/>
<path d="M4202 3900 c7 -11 16 -20 20 -20 15 0 8 15 -12 28 -19 12 -20 11 -8
-8z"/>
<path d="M2069 3862 c-24 -25 -31 -56 -23 -107 10 -70 27 -54 23 23 -4 63 -3
67 19 70 12 2 22 10 22 18 0 19 -21 17 -41 -4z"/>
<path d="M3587 3760 c3 -11 9 -20 13 -20 5 0 6 9 3 20 -3 11 -9 20 -13 20 -5
0 -6 -9 -3 -20z"/>
<path d="M2012 3735 c0 -16 2 -22 5 -12 2 9 2 23 0 30 -3 6 -5 -1 -5 -18z"/>
<path d="M3995 3749 c-12 -19 2 -21 32 -5 l28 15 -27 1 c-15 0 -30 -5 -33 -11z"/>
<path d="M1960 3581 c0 -12 5 -21 10 -21 6 0 10 6 10 14 0 8 -4 18 -10 21 -5
3 -10 -3 -10 -14z"/>
<path d="M2020 3376 c0 -19 4 -37 9 -40 10 -6 24 52 15 65 -12 20 -24 7 -24
-25z"/>
<path d="M3264 3162 c5 -8 -1 -12 -17 -12 -13 0 -36 -9 -50 -20 -14 -11 -32
-20 -40 -20 -9 0 -18 -4 -22 -9 -7 -13 -64 -41 -82 -41 -22 0 -6 -41 25 -67
36 -30 99 -31 136 -2 23 18 36 21 82 15 29 -3 68 -15 86 -26 18 -11 42 -20 54
-20 11 0 25 -5 32 -12 12 -12 152 -20 152 -9 0 8 74 31 99 31 31 0 59 32 66
76 8 50 -6 64 -29 29 l-16 -24 -38 41 c-32 33 -45 41 -78 42 -26 0 -50 -7 -71
-22 -36 -25 -68 -30 -60 -7 7 17 -9 30 -18 15 -10 -16 -71 -12 -85 5 -7 9 -19
14 -26 11 -7 -3 -16 -1 -19 3 -3 5 -15 7 -27 3 -14 -3 -19 -2 -14 6 4 7 3 12
-3 12 -5 0 -17 3 -27 7 -12 4 -15 3 -10 -5z"/>
<path d="M4800 3055 c0 -14 4 -25 9 -25 5 0 11 11 13 25 4 17 1 25 -8 25 -8 0
-14 -11 -14 -25z"/>
<path d="M4375 2780 c-3 -5 -1 -10 4 -10 6 0 11 5 11 10 0 6 -2 10 -4 10 -3 0
-8 -4 -11 -10z"/>
<path d="M4372 2710 c0 -14 2 -19 5 -12 2 6 2 18 0 25 -3 6 -5 1 -5 -13z"/>
<path d="M4362 2615 c0 -16 2 -22 5 -12 2 9 2 23 0 30 -3 6 -5 -1 -5 -18z"/>
<path d="M3538 2612 c-16 -9 -28 -22 -28 -29 0 -14 -16 -18 -24 -5 -5 8 -112
8 -136 -1 -8 -3 -39 -11 -68 -17 -47 -11 -55 -10 -72 5 -10 9 -23 14 -29 11
-6 -4 -19 2 -31 14 -11 11 -29 20 -40 20 -20 0 -125 -26 -138 -34 -17 -10
-148 -29 -189 -27 -51 2 -55 -10 -10 -37 28 -18 46 -20 152 -17 66 1 141 7
167 12 26 6 164 8 305 6 241 -3 353 -13 379 -34 6 -5 13 -7 16 -4 3 3 29 6 59
6 59 2 103 19 113 44 10 26 8 28 -29 21 -35 -7 -95 7 -125 29 -60 43 -190 71
-190 41 0 -21 -40 -46 -72 -46 -32 0 -37 16 -8 25 11 3 20 10 20 15 0 5 10 11
23 13 19 4 19 4 2 5 -11 1 -32 -6 -47 -16z m-411 -28 c-3 -3 -12 -4 -19 -1 -8
3 -5 6 6 6 11 1 17 -2 13 -5z"/>
<path d="M3480 2610 c0 -5 5 -10 10 -10 6 0 10 5 10 10 0 6 -4 10 -10 10 -5 0
-10 -4 -10 -10z"/>
<path d="M2716 2574 c-4 -9 -4 -19 -1 -22 3 -3 5 0 5 6 0 7 7 12 16 12 8 0 12
5 9 10 -9 15 -22 12 -29 -6z"/>
<path d="M4370 2531 c0 -6 4 -13 10 -16 6 -3 7 1 4 9 -7 18 -14 21 -14 7z"/>
<path d="M4351 2504 c0 -11 3 -14 6 -6 3 7 2 16 -1 19 -3 4 -6 -2 -5 -13z"/>
<path d="M4386 2443 c-6 -14 -5 -15 5 -6 7 7 10 15 7 18 -3 3 -9 -2 -12 -12z"/>
<path d="M4341 2434 c0 -11 3 -14 6 -6 3 7 2 16 -1 19 -3 4 -6 -2 -5 -13z"/>
<path d="M3455 2329 c-10 -15 3 -25 16 -12 7 7 7 13 1 17 -6 3 -14 1 -17 -5z"/>
<path d="M3358 2267 c15 -16 18 -27 12 -37 -8 -12 -10 -12 -10 -1 0 9 -10 4
-27 -13 -14 -14 -29 -24 -32 -20 -3 3 2 11 12 18 21 16 22 26 2 26 -7 0 -18 7
-23 17 -12 20 -47 10 -38 -12 3 -8 1 -15 -4 -15 -6 0 -10 -5 -10 -12 0 -6 9
-3 20 7 19 18 20 17 20 -3 0 -12 -6 -22 -12 -22 -7 0 -1 -8 12 -17 14 -9 27
-20 30 -24 3 -3 32 -9 65 -13 96 -11 146 -8 158 12 4 6 14 12 21 12 15 0 30
27 27 48 -1 6 7 12 18 12 14 0 21 -8 23 -26 l3 -26 33 32 c33 31 42 76 15 74
-7 -1 -36 -2 -64 -2 -30 -1 -48 -6 -44 -12 8 -12 3 -13 -29 0 -17 6 -27 6 -32
-1 -4 -7 -10 -6 -18 1 -8 5 -35 8 -65 5 -34 -4 -50 -2 -46 5 3 6 -4 10 -16 10
l-22 0 21 -23z m302 -12 c0 -8 -4 -15 -10 -15 -5 0 -10 7 -10 15 0 8 5 15 10
15 6 0 10 -7 10 -15z"/>
<path d="M2430 2220 c0 -5 5 -10 10 -10 6 0 10 5 10 10 0 6 -4 10 -10 10 -5 0
-10 -4 -10 -10z"/>
<path d="M4302 2190 c0 -14 2 -19 5 -12 2 6 2 18 0 25 -3 6 -5 1 -5 -13z"/>
<path d="M2370 2186 c0 -17 24 -38 33 -29 15 15 6 43 -13 43 -11 0 -20 -6 -20
-14z"/>
<path d="M4286 2144 c-4 -9 -4 -19 -1 -22 2 -3 7 3 11 12 4 9 4 19 1 22 -2 3
-7 -3 -11 -12z"/>
<path d="M4315 2130 c-3 -6 1 -13 10 -16 21 -9 26 -2 10 13 -9 8 -16 9 -20 3z"/>
<path d="M2540 2120 c18 -12 30 -13 30 -2 0 4 -10 9 -22 9 -18 2 -20 0 -8 -7z"/>
<path d="M2496 2101 c-4 -5 -2 -12 4 -16 5 -3 10 -15 10 -26 0 -10 6 -19 14
-19 26 0 27 18 2 45 -13 14 -27 22 -30 16z"/>
<path d="M4328 2043 c7 -3 16 -2 19 1 4 3 -2 6 -13 5 -11 0 -14 -3 -6 -6z"/>
<path d="M2580 2029 c0 -5 5 -7 10 -4 6 3 10 8 10 11 0 2 -4 4 -10 4 -5 0 -10
-5 -10 -11z"/>
<path d="M4260 2029 c0 -6 -7 -8 -16 -5 -12 4 -14 1 -9 -14 4 -13 2 -20 -5
-18 -7 2 -15 -3 -17 -9 -3 -8 5 -13 21 -13 14 0 26 -4 26 -10 0 -5 14 -10 30
-10 26 0 30 3 30 29 0 16 -3 36 -6 45 -7 18 -54 22 -54 5z"/>
<path d="M2877 1920 c3 -11 9 -17 15 -14 5 3 4 12 -3 20 -16 19 -18 18 -12 -6z"/>
<path d="M2930 1840 c0 -5 5 -10 10 -10 6 0 10 5 10 10 0 6 -4 10 -10 10 -5 0
-10 -4 -10 -10z"/>
<path d="M5013 1435 c0 -22 2 -30 4 -17 2 12 2 30 0 40 -3 9 -5 -1 -4 -23z"/>
<path d="M4248 1393 c7 -3 16 -2 19 1 4 3 -2 6 -13 5 -11 0 -14 -3 -6 -6z"/>
<path d="M2573 1323 c9 -2 23 -2 30 0 6 3 -1 5 -18 5 -16 0 -22 -2 -12 -5z"/>
<path d="M2624 1286 c-6 -17 11 -46 27 -46 14 0 10 30 -6 46 -13 14 -16 14
-21 0z"/>
<path d="M3008 1293 c7 -3 16 -2 19 1 4 3 -2 6 -13 5 -11 0 -14 -3 -6 -6z"/>
<path d="M3300 1264 c0 -8 5 -12 10 -9 6 4 8 11 5 16 -9 14 -15 11 -15 -7z"/>
<path d="M2855 1250 c-3 -5 1 -10 9 -10 9 0 16 5 16 10 0 6 -4 10 -9 10 -6 0
-13 -4 -16 -10z"/>
<path d="M3600 1223 c0 -25 0 -26 20 -8 11 10 20 22 20 27 0 4 -9 8 -20 8 -15
0 -20 -7 -20 -27z"/>
<path d="M4480 1184 c0 -8 5 -12 10 -9 6 4 8 11 5 16 -9 14 -15 11 -15 -7z"/>
<path d="M3615 1141 c7 -44 12 -49 32 -28 16 16 16 17 0 17 -10 0 -22 10 -28
23 -8 18 -9 16 -4 -12z"/>
<path d="M3500 1140 c-13 -9 -13 -11 0 -19 10 -7 17 -6 22 2 17 26 5 35 -22
17z"/>
<path d="M4540 1146 c0 -2 7 -7 16 -10 8 -3 12 -2 9 4 -6 10 -25 14 -25 6z"/>
<path d="M2160 1120 c0 -14 -3 -36 -6 -50 -5 -17 -3 -22 3 -15 16 16 23 59 13
75 -8 12 -10 10 -10 -10z"/>
<path d="M2640 1120 c0 -5 5 -10 10 -10 6 0 10 5 10 10 0 6 -4 10 -10 10 -5 0
-10 -4 -10 -10z"/>
<path d="M3464 1072 c-7 -6 -16 -21 -19 -32 -5 -15 -15 -20 -45 -20 -21 0 -42
-5 -45 -11 -4 -6 -19 -7 -36 -4 -25 6 -29 4 -30 -17 0 -13 -3 -17 -6 -11 -3 9
-10 10 -22 4 -10 -6 -23 -6 -31 -1 -11 7 -7 10 13 15 27 7 33 16 20 28 -3 4
-13 1 -21 -5 -8 -7 -22 -13 -31 -13 -9 0 -15 -6 -13 -14 1 -7 -3 -20 -10 -29
-11 -13 -10 -15 4 -9 13 4 15 2 11 -10 -5 -12 -1 -14 15 -8 14 4 22 2 22 -5 0
-7 8 -10 20 -7 10 3 21 0 22 -5 2 -6 18 -6 44 1 23 6 55 8 73 5 27 -6 30 -4
24 11 -5 14 -3 17 8 13 12 -5 15 1 13 26 -2 17 -1 23 2 14 8 -26 38 -23 31 2
-3 12 0 20 7 20 7 0 25 11 40 25 23 21 25 26 11 31 -12 5 -13 9 -5 14 6 4 -3
7 -21 6 -18 -1 -38 -7 -45 -14z m41 -22 c3 -5 1 -10 -4 -10 -6 0 -11 5 -11 10
0 6 2 10 4 10 3 0 8 -4 11 -10z"/>
<path d="M2137 1024 c-4 -4 -7 -14 -7 -23 0 -11 3 -12 11 -4 6 6 10 16 7 23
-2 6 -7 8 -11 4z"/>
<path d="M3308 893 c6 -2 18 -2 25 0 6 3 1 5 -13 5 -14 0 -19 -2 -12 -5z"/>
<path d="M3670 460 c-20 -12 -5 -24 16 -12 9 5 12 12 7 15 -5 3 -15 2 -23 -3z"/>
</g>
</svg>
